<svg width="94" height="25" viewBox="0 0 94 25" fill="none" xmlns="http://www.w3.org/2000/svg">
<path d="M1.37172 18.1343H11.7855C12.0688 18.1343 12.2411 17.8221 12.0901 17.5823L1.6763 1.05475C1.48385 0.749321 1.01172 0.885658 1.01172 1.24666V17.7743C1.01172 17.9731 1.1729 18.1343 1.37172 18.1343Z" fill="#FFBBE4" stroke="#FFBBE4" stroke-width="0.72"/>
<path d="M19.4434 18.0305L19.4261 13.7187C19.426 13.7036 19.4084 13.6953 19.3967 13.7049L14.0584 18.0776C14.0453 18.0883 14.0528 18.1095 14.0697 18.1095L19.3533 18.1209C19.4032 18.121 19.4436 18.0805 19.4434 18.0305Z" fill="#FF8AA1" stroke="#FF8AA1" stroke-width="0.72"/>
<path d="M3.70241 0.81568C3.66704 0.81568 3.6455 0.854611 3.66429 0.884581L13.3305 16.3042C13.3591 16.35 13.4213 16.3604 13.4633 16.3265L19.3653 11.561C19.4077 11.5269 19.4323 11.4754 19.4323 11.421L19.4323 1.71568C19.4323 1.21862 19.0293 0.815675 18.5323 0.815675L3.70241 0.81568Z" fill="#5A7BBB" stroke="#5A7BBB" stroke-width="0.72"/>
<rect x="1" y="19.8145" width="18.4324" height="4.18559" rx="0.36" fill="#484843" stroke="#484843" stroke-width="0.72"/>
<path d="M32.9909 22.595C28.179 22.4992 24.3725 18.5731 24.4444 13.833C24.5162 9.09284 28.4663 5.31032 33.2782 5.40608C35.9595 5.45396 38.3056 6.67489 39.8857 8.56615L38.0183 9.64346C36.8692 8.3507 35.1695 7.48885 33.2543 7.46491C29.5915 7.3931 26.599 10.2659 26.5271 13.8808C26.4793 17.4958 29.376 20.4404 33.0149 20.4883C35.4089 20.5362 37.5156 19.3392 38.7126 17.5197V15.796H34.0443V13.833H40.6517V22.3556H38.7126V20.584C37.1565 21.8529 35.1695 22.6189 32.9909 22.595Z" fill="#2E2D29"/>
<path d="M42.3236 22.3556V10.3856H44.2867V12.1332C45.2922 10.7926 46.9201 9.97862 48.5001 9.97862V12.229C46.1061 12.229 44.2867 13.6893 44.2867 15.9876V22.3556H42.3236Z" fill="#2E2D29"/>
<path d="M52.6743 22.595C50.2564 22.595 48.7481 21.2304 48.7481 19.1476C48.7481 13.6893 56.1695 16.6579 56.1695 14.0484C56.1695 12.7078 55.3556 11.9178 53.6798 11.9178C52.2434 11.9178 51.214 12.4684 51.214 13.426H49.2509C49.2509 11.439 50.9506 10.1941 53.6798 10.1941C56.6244 10.1941 58.1326 11.8699 58.1326 14.5272V22.3556H56.1695V20.8953C55.6189 21.9486 54.4219 22.595 52.6743 22.595ZM50.7112 19.1237C50.7112 20.201 51.6209 20.9192 53.0813 20.9192C54.9725 20.9192 56.1695 19.818 56.1695 18.0464V16.6339C53.9671 17.2324 50.7112 16.8973 50.7112 19.1237Z" fill="#2E2D29"/>
<path d="M59.4267 22.3556V10.3856H61.3898V12.0135C62.1319 10.8405 63.3768 10.1701 64.885 10.1701C68.1169 10.1701 69.8166 12.4444 69.8166 15.9157V22.3556H67.8536V15.9157C67.8536 13.8808 66.8481 12.1811 64.8371 12.1811C62.4431 12.1811 61.3898 13.8808 61.3898 15.9157V22.3556H59.4267Z" fill="#2E2D29"/>
<path d="M71.2691 22.3556V10.3856H73.2322V22.3556H71.2691ZM71.0058 6.81853C71.0058 6.10034 71.5085 5.59759 72.2507 5.59759C72.9689 5.59759 73.4716 6.10034 73.4716 6.81853C73.4716 7.56067 72.9689 8.06342 72.2507 8.06342C71.5085 8.06342 71.0058 7.56067 71.0058 6.81853Z" fill="#2E2D29"/>
<path d="M80.022 22.3556C77.0774 22.3556 75.8086 20.8713 75.8086 17.8788V12.0375H73.9412V10.3617H75.8086V6.72277H77.7716V10.3856H80.9557V12.0375H77.7716V17.8788C77.7716 20.1771 79.0644 20.6319 80.3572 20.6319H80.9317V22.3556H80.022Z" fill="#2E2D29"/>
<path d="M87.4253 22.5711C83.7624 22.5711 81.4403 20.0095 81.4403 16.3467C81.4403 12.7078 84.0018 10.1462 87.4253 10.1462C90.2023 10.1462 93.0272 11.7502 93.0272 16.203C93.0272 16.7536 93.0033 17.0649 93.0033 17.0649H83.4512C83.7146 19.2195 85.151 20.8474 87.4253 20.8474C89.0053 20.8474 90.0826 20.2489 90.7769 19.0758L92.6442 19.7222C91.6626 21.6135 89.8911 22.5711 87.4253 22.5711ZM83.4752 15.3891H91.0881C91.0881 13.1866 89.3644 11.8699 87.4253 11.8699C85.2467 11.8699 83.8103 13.3781 83.4752 15.3891Z" fill="#2E2D29"/>
</svg>
